Go Bucks!!!!!!!!!!!!!!                                                                     

												

Please download the sample and determine if the quality meets your expectations.          

                                                                   		                                                                Enjoy and please share.                                                                              

                                                                                 Beat 

Cal!!!												

											

TTLTTLTTLTTLTTLTTLTTLTTLTTLTTLTTLTTLTTLTTLTTLTTL						

												

												

												

NCAA_OSU_VS_Central Florida_1st_Half_480p.HDTV.x264_TTL.mkv
Format                           : Matroska
Format version                   : Version 2
File size                        : 739 MiB
Duration                         : 1h 3mn
Overall bit rate                 : 1 618 Kbps
Writing application              : HandBrake 0.9.5
Writing library                  : libmkv 0.6.4.1

Video
ID                               : 1
Format                           : AVC
Format/Info                      : Advanced Video Codec
Format profile                   : Main@L3.0
Format settings, CABAC           : Yes
Format settings, ReFrames        : 4 frames
Codec ID                         : V_MPEG4/ISO/AVC
Duration                         : 1h 3mn
Bit rate                         : 1 484 Kbps
Width                            : 624 pixels
Height                           : 352 pixels
Display aspect ratio             : 16:9
Frame rate mode                  : Variable
Frame rate                       : 29.970 fps
Color space                      : YUV
Chroma subsampling               : 4:2:0
Bit depth                        : 8 bits
Scan type                        : Progressive
Bits/(Pixel*Frame)               : 0.225
Stream size                      : 666 MiB (90%)
Writing library                  : x264 core 112

Language                         : English
Default                          : Yes
Forced                           : No
Color primaries                  : BT.601-6 525, BT.1358 525, BT.1700 NTSC, SMPTE 170M
Transfer characteristics         : BT.709-5, BT.1361
Matrix coefficients              : BT.601-6 525, BT.1358 525, BT.1700 NTSC, SMPTE 170M

Audio
ID                               : 2
Format                           : AC-3
Format/Info                      : Audio Coding 3
Mode extension                   : CM (complete main)
Codec ID                         : A_AC3
Duration                         : 1h 3mn
Bit rate mode                    : Constant
Bit rate                         : 128 Kbps
Channel(s)                       : 2 channels
Channel positions                : Front: L R
Sampling rate                    : 48.0 KHz
Bit depth                        : 16 bits
Compression mode                 : Lossy
Stream size                      : 58.5 MiB (8%)
Default                          : Yes
Forced                           : No

